<svg id="Contents" xmlns="http://www.w3.org/2000/svg" viewBox="0 0 236.92 24.08"><defs><style>.cls-1{fill:#005aac;}.cls-2{fill:#595757;}</style></defs><title>logo</title><path class="cls-1" d="M127.42,212.21h1.44a.26.26,0,0,0,.2-.11l6-9.78,3.25,11.19a.19.19,0,0,0,.17.13h6.27a.09.09,0,0,0,.09-.13l-6.61-20.93a.2.2,0,0,0-.17-.13h-2.35a.27.27,0,0,0-.21.11L127.42,205l-8.05-12.49a.27.27,0,0,0-.21-.11h-2.35a.19.19,0,0,0-.17.13L110,213.51a.09.09,0,0,0,.09.13h6.27a.19.19,0,0,0,.17-.13l3.25-11.19,6,9.78a.26.26,0,0,0,.2.11Z" transform="translate(-74.21 -189.85)"/><path class="cls-1" d="M110.31,201.78h0a.13.13,0,0,0-.13-.1H92.32a1.71,1.71,0,0,0,0,3.42h10.61c-1.26,3.34-5.54,5.8-10.61,5.8-6.07,0-11-3.51-11-7.85s4.92-7.85,11-7.85a13.17,13.17,0,0,1,8.31,2.71l0,0,.07,0H108a.13.13,0,0,0,.1-.22h0c-3.11-3.31-9-5.55-15.79-5.55-10,0-18.11,4.87-18.11,10.88s8.11,10.88,18.11,10.88,18.11-4.87,18.11-10.88A6.67,6.67,0,0,0,110.31,201.78Z" transform="translate(-74.21 -189.85)"/><path class="cls-1" d="M162.53,192.16c-10,0-18.11,4.87-18.11,10.88s8.11,10.88,18.11,10.88,18.11-4.87,18.11-10.88S172.53,192.16,162.53,192.16Zm0,18.73c-6.07,0-11-3.51-11-7.85s4.92-7.85,11-7.85,11,3.52,11,7.85S168.6,210.89,162.53,210.89Z" transform="translate(-74.21 -189.85)"/><path class="cls-2" d="M186.19,204.74V191.6h4.35v13.15Zm2.7,8.42v-3.87c8.12-.45,12.37-2.22,12.37-9.87V191.6h4.37v7.85C205.64,209.42,199.74,212.94,188.89,213.17Z" transform="translate(-74.21 -189.85)"/><path class="cls-2" d="M217.82,212.94c-4.32,0-6.25-1.47-6.25-5.62V191.37h4.25v4.32h15.35v3.85H215.82v6.95c0,2,.92,2.57,3,2.57h12.77v3.87Zm11.35-17.82a2.64,2.64,0,1,1,2.62-2.65A2.63,2.63,0,0,1,229.16,195.12Zm0-3.75a1.11,1.11,0,1,0,1.15,1.1A1.13,1.13,0,0,0,229.16,191.37Z" transform="translate(-74.21 -189.85)"/><path class="cls-2" d="M236.29,203.09v-4H258v4Z" transform="translate(-74.21 -189.85)"/><path class="cls-2" d="M265.91,213.34v-3.85c5.32-.65,9-2.4,11.32-5.25a88,88,0,0,0-9.65-1.52v-2.77a14.36,14.36,0,0,1-4.72,3.15v-4.32a13.15,13.15,0,0,0,5.17-7h17v.4C284.81,203.34,280.59,212.24,265.91,213.34Zm4.87-17.75a18.15,18.15,0,0,1-2.35,3.42,95.93,95.93,0,0,1,10.85,1.72,21.91,21.91,0,0,0,1.25-5.15Z" transform="translate(-74.21 -189.85)"/><path class="cls-2" d="M289.45,203.09v-4h21.67v4Z" transform="translate(-74.21 -189.85)"/></svg>